<?xml version="1.0" encoding="UTF-8" standalone="no"?>
<!-- Created with Inkscape (http://www.inkscape.org/) -->

<svg
  width="256.0px"
  height="256.0px"
  viewBox="0 0 256.0 256.0"
  version="1.1"
  id="SVGRoot"
  xmlns="http://www.w3.org/2000/svg"
>
  <defs
    id="defs888"/>
  <g
    id="layer1">
    <circle
      style="fill:#000000;stroke:none;stroke-width:2;stroke-linecap:round;stroke-linejoin:round"
      id="path1018"
      cx="128"
      cy="128"
      r="128"/>
    <ellipse
      style="fill:#000000;stroke:none;stroke-width:3;stroke-linecap:round;stroke-linejoin:round;stroke-miterlimit:4;stroke-dasharray:none"
      id="path1289"
      cx="128.53653"
      cy="97.947533"
      rx="64.114014"
      ry="65.640541"/>
    <path
      id="path12652"
      style="color:#000000;fill:#ffffff;stroke-width:3;stroke-linecap:round;stroke-linejoin:round;-inkscape-stroke:none"
      d="m 88.144531,156.55078 c -0.18386,0.53412 -0.322374,1.06641 -0.580078,1.60156 l -0.05078,0.10743 -0.06055,0.10156 c -2.530004,4.34462 -7.197972,6.89369 -12.138672,8.48633 -4.909407,1.58255 -10.213286,2.18051 -14.716797,1.93359 -2.758994,-0.002 -5.962442,-0.62399 -9.117187,-1.62695 -11.907177,7.88692 -18.368238,17.41029 -18.453125,27.19922 0.02595,13.01747 11.31644,25.42687 31.099609,34.18164 C 81.538306,205.31304 104.32857,192.38511 128,192.30273 c 23.71296,0.0135 46.55797,12.92 64.01172,36.16407 19.69577,-8.75074 30.93109,-21.13 30.96094,-34.11328 -0.0849,-9.78893 -6.54595,-19.3123 -18.45313,-27.19922 -3.15475,1.00301 -6.35819,1.62512 -9.11719,1.62695 -4.50351,0.24692 -9.80739,-0.35104 -14.71679,-1.93359 -4.9407,-1.59264 -9.60866,-4.14171 -12.13867,-8.48633 l -0.0605,-0.10156 -0.0508,-0.10743 c -0.25769,-0.53514 -0.39622,-1.06745 -0.58008,-1.60156 l -28.78711,12.79297 c -0.53284,0.23682 -2.32526,2.32204 -3.85156,5.16406 -1.52631,2.84203 -2.99372,6.18255 -4.84766,8.83008 l -2.57422,3.67773 -2.41211,-3.7871 c -1.79118,-2.81092 -3.04674,-6.08657 -4.42187,-8.79102 -1.37513,-2.70445 -2.85685,-4.57266 -4.0293,-5.09375 z"/>
    <path
      style="color:#000000;fill:#ffffff;stroke-width:6;-inkscape-stroke:none"
      d="m 127.33203,27.464842 c 0,0 -4.95478,0.120595 -7.34765,0.425781 -20.321309,2.591753 -40.213966,14.782679 -48.667974,27.349609 -2.524957,3.753364 -5.538883,10.793198 -7.537109,19.75586 -1.860451,8.344719 -1.743911,13.278177 -2.179688,16.560547 -0.540388,4.070279 0.101579,7.029979 -5.699218,10.521481 -6.408514,3.8573 -9.360634,6.35507 -13.748047,11.61915 -6.171137,7.4042 -10.25,16.26684 -10.25,22.26953 0,7.32398 4.278556,14.93986 11.154297,19.85156 4.3598,3.11444 12.79493,5.99106 17.621093,5.97266 8.206525,0.47086 20.309467,-2.28666 24.183594,-8.93946 0.72778,-1.51133 1.063354,-3.01285 1.191406,-4.51367 l 32.097656,14.26367 c 4.69093,2.08485 6.68028,10.17991 9.76172,15.01563 3.14071,-4.48512 5.97756,-13.25567 9.9375,-15.01563 l 32.09766,-14.26367 c 0.12804,1.50082 0.46364,3.00234 1.1914,4.51367 3.87413,6.6528 15.97707,9.41032 24.1836,8.93946 4.82616,0.0184 13.2613,-2.85822 17.62109,-5.97266 6.87575,-4.9117 11.1543,-12.52758 11.1543,-19.85156 0,-6.00269 -4.07887,-14.86533 -10.25,-22.26953 -4.38742,-5.26408 -7.33953,-7.76184 -13.74805,-11.61915 -5.80079,-3.491512 -5.15883,-6.451202 -5.69922,-10.521481 -0.43577,-3.28237 -0.31924,-8.215828 -2.17969,-16.560547 -1.99823,-8.962662 -5.01216,-16.002496 -7.53711,-19.75586 -8.45401,-12.56693 -28.34667,-24.757856 -48.66797,-27.349609 -2.39287,-0.305186 -7.34765,-0.425781 -7.34765,-0.425781 z m -0.0117,2.015625 h 1.35938 c 0,0 6.53132,0.374785 9.66015,1.130859 8.59663,2.077362 17.75509,6.719818 24.65235,12.498047 6.14166,5.145178 7.9292,8.768798 7.99414,16.201172 0.0394,4.514674 -0.44726,7.080472 -2.15235,10.861328 -4.65549,-4.102561 -9.43161,-6.307854 -14.31054,-6.673828 -0.36397,-0.02731 -0.72733,-0.04379 -1.0918,-0.05078 -5.46719,-0.105007 -10.99083,2.063136 -16.54492,6.183593 a 0.75084442,0.75084442 0 0 0 -0.29492,0.720703 l 0.96093,5.982422 a 0.75084442,0.75084442 0 0 0 1.11329,0.533204 c 5.62761,-3.223692 10.83519,-5.597987 15.89648,-5.806641 3.94507,-0.162638 7.8452,0.953896 11.94336,4.082031 -1.49482,3.419635 -1.64852,5.56875 -0.77734,9.347656 3.17627,13.255245 7.49309,25.039137 6.74414,39.193357 7.5e-4,8.72183 -0.0985,9.84807 -1.25391,14.20899 -0.15159,0.83372 -0.31812,1.65165 -0.48242,2.47265 l -34.58789,10.97657 c 0,0 -0.70774,0.16926 -0.93164,0.22851 l 3.25781,-11.66406 c 0.1339,-0.47867 -0.22562,-0.95302 -0.72266,-0.95313 h -19.5039 c -0.49704,1.2e-4 -0.85657,0.47446 -0.72266,0.95313 l 3.25781,11.66406 c -0.22328,-0.0589 -0.93164,-0.22851 -0.93164,-0.22851 L 85.263672,140.36523 c -0.1643,-0.821 -0.330836,-1.63893 -0.482422,-2.47265 -1.155382,-4.36092 -1.25477,-5.48716 -1.253906,-14.20899 -0.748953,-14.15422 3.567867,-25.938112 6.74414,-39.193358 0.871171,-3.778906 0.717472,-5.92802 -0.777343,-9.347656 4.098156,-3.128135 7.998281,-4.244669 11.943359,-4.082031 5.06129,0.208654 10.26887,2.582948 15.89648,5.806641 a 0.75084442,0.75084442 0 0 0 1.11329,-0.533204 l 0.96093,-5.982422 a 0.75084442,0.75084442 0 0 0 -0.29492,-0.720703 c -5.55409,-4.120457 -11.07773,-6.2886 -16.54492,-6.183593 -0.36448,0.007 -0.72783,0.02348 -1.0918,0.05078 -4.878919,0.365974 -9.655053,2.571267 -14.310544,6.673828 -1.705102,-3.780856 -2.191748,-6.346654 -2.152344,-10.861328 0.06494,-7.432374 1.85249,-11.055994 7.99414,-16.201172 6.897267,-5.778229 16.055708,-10.420685 24.652348,-12.498047 3.12882,-0.756074 9.66015,-1.130859 9.66015,-1.130859 z"
      id="path2051"/>
    <path
      style="color:#000000;fill:#ffffff;stroke-width:1;stroke-linecap:round;stroke-linejoin:round;-inkscape-stroke:none"
      d="m 130.53678,119.86434 c -0.49404,-0.2022 -1.03535,0.16122 -1.03524,0.69504 v 9.46234 c 3.4e-4,0.40015 0.31444,0.72972 0.71411,0.7493 l 26.27693,1.27572 c 0.84619,0.0445 1.10661,-1.12794 0.32113,-1.44582 z"
      id="path14979"/>
    <path
      style="color:#000000;fill:#ffffff;stroke-width:1;stroke-linecap:round;stroke-linejoin:round;-inkscape-stroke:none"
      d="m 125.46322,119.86434 -26.276925,10.73658 c -0.785481,0.31788 -0.525064,1.49036 0.321129,1.44582 l 26.276926,-1.27572 c 0.39967,-0.0196 0.71377,-0.34915 0.71411,-0.7493 v -9.46234 c 1.1e-4,-0.53382 -0.5412,-0.89724 -1.03524,-0.69504 z"
      id="path15145"/>
  </g>
</svg>
